<svg width="36" height="36" viewBox="0 0 36 36" fill="none" xmlns="http://www.w3.org/2000/svg">
<path fill-rule="evenodd" clip-rule="evenodd" d="M13.1458 11.1302C12.6942 11.1671 12.3177 11.2624 12.0161 11.4161C11.4704 11.6941 11.0268 12.1378 10.7487 12.6834C10.5951 12.985 10.4998 13.3616 10.4629 13.8131V19.5202C10.4998 19.9718 10.5951 20.3483 10.7487 20.6499C11.0268 21.1956 11.4704 21.6392 12.0161 21.9173C12.3177 22.071 12.6942 22.1662 13.1458 22.2031H22.8528C23.3044 22.1662 23.6809 22.071 23.9825 21.9173C24.5282 21.6392 24.9718 21.1956 25.2499 20.6499C25.4036 20.3483 25.4989 19.9718 25.5357 19.5202V13.8131C25.4989 13.3616 25.4036 12.985 25.2499 12.6834C24.9718 12.1378 24.5282 11.6941 23.9825 11.4161C23.6809 11.2624 23.3044 11.1671 22.8528 11.1302H13.1458ZM12.8333 13.0199C12.6263 13.1254 12.458 13.2936 12.3525 13.5006C12.3064 13.5912 12.2745 13.7442 12.2569 13.9597V19.3737C12.2745 19.5891 12.3064 19.7422 12.3525 19.8327C12.458 20.0397 12.6263 20.208 12.8333 20.3134C12.9238 20.3596 13.0769 20.3915 13.2923 20.4091H22.7062C22.9218 20.3915 23.0748 20.3596 23.1653 20.3134C23.3723 20.208 23.5406 20.0397 23.646 19.8327C23.6922 19.7422 23.7241 19.5891 23.7417 19.3737V13.9597C23.7241 13.7442 23.6922 13.5912 23.646 13.5006C23.5406 13.2936 23.3723 13.1254 23.1653 13.0199C23.0748 12.9738 22.9218 12.9419 22.7062 12.9243H13.2923C13.0769 12.9419 12.9238 12.9738 12.8333 13.0199Z" fill="black"/>
<path fill-rule="evenodd" clip-rule="evenodd" d="M15.0472 24.9C15.1929 24.9 15.3305 24.8654 15.4522 24.804C16.2512 24.4235 17.1003 24.2333 17.9993 24.2333C18.8984 24.2333 19.7474 24.4235 20.5465 24.804C20.6682 24.8654 20.8058 24.9 20.9514 24.9C21.4485 24.9 21.8514 24.4971 21.8514 24C21.8514 23.6349 21.6339 23.3205 21.3215 23.1794C20.2774 22.682 19.1701 22.4333 17.9993 22.4333C16.8286 22.4333 15.7212 22.682 14.6771 23.1794C14.3646 23.3205 14.1472 23.6349 14.1472 24C14.1472 24.4971 14.5501 24.9 15.0472 24.9Z" fill="black"/>
</svg>
