<svg width="36" height="36" viewBox="0 0 36 36" fill="none" xmlns="http://www.w3.org/2000/svg">
<path fill-rule="evenodd" clip-rule="evenodd" d="M18.0019 11.2344C15.5167 11.2344 13.502 13.2491 13.502 15.7344C13.502 16.2803 13.9445 16.7228 14.4904 16.7228C15.0364 16.7228 15.4789 16.2803 15.4789 15.7344C15.4789 14.3409 16.6085 13.2114 18.0019 13.2114C19.3954 13.2114 20.525 14.3409 20.525 15.7344C20.525 16.4761 20.0715 17.1114 19.1646 17.6402C18.1376 18.2391 17.483 18.8831 17.2011 19.5723L17.1927 19.5927L17.1852 19.6136C17.0988 19.855 17.0407 20.1489 17.0107 20.4952C17.0076 20.5268 17.0061 20.5588 17.0061 20.5911C17.0061 21.1371 17.4487 21.5797 17.9946 21.5797C18.5155 21.5797 18.9423 21.1767 18.9803 20.6656C18.9943 20.5036 19.0141 20.3819 19.0397 20.3003C19.1623 20.0296 19.5359 19.7123 20.1605 19.3481C21.7214 18.4379 22.502 17.2333 22.502 15.7344C22.502 13.2491 20.4872 11.2344 18.0019 11.2344ZM18 24.7506C18.6239 24.7506 19.1297 24.2447 19.1297 23.6209C19.1297 22.997 18.6239 22.4912 18 22.4912C17.376 22.4912 16.8703 22.997 16.8703 23.6209C16.8703 24.2447 17.376 24.7506 18 24.7506Z" fill="black"/>
</svg>
