<svg width="36" height="36" viewBox="0 0 36 36" fill="none" xmlns="http://www.w3.org/2000/svg">
<path fill-rule="evenodd" clip-rule="evenodd" d="M17.1721 10.57C17.6862 10.2809 18.3138 10.2809 18.8279 10.57L24.1391 13.5576C24.6709 13.8567 25 14.4194 25 15.0295V20.9707C25 21.5808 24.6709 22.1434 24.1391 22.4426L18.8279 25.43C18.3138 25.7192 17.6862 25.7193 17.1721 25.4301L11.8609 22.4428C11.3291 22.1437 11 21.581 11 20.9709V15.0294C11 14.4193 11.3291 13.8567 11.8608 13.5575L17.1721 10.57ZM12.8601 15.1296L18 12.2384L23.1399 15.1296V20.8705L18 23.7617L12.8601 20.8707V15.1296ZM20.9968 18.0001C20.9968 19.6551 19.6552 20.9968 18.0001 20.9968C16.345 20.9968 15.0033 19.6551 15.0033 18.0001C15.0033 16.345 16.345 15.0033 18.0001 15.0033C19.6551 15.0033 20.9968 16.345 20.9968 18.0001ZM19.1368 18.0001C19.1368 17.3723 18.6278 16.8634 18.0001 16.8634C17.3723 16.8634 16.8633 17.3722 16.8633 18.0001C16.8633 18.6278 17.3723 19.1368 18.0001 19.1368C18.6279 19.1368 19.1368 18.6279 19.1368 18.0001Z" fill="black"/>
</svg>
