<svg width="36" height="36" viewBox="0 0 36 36" fill="none" xmlns="http://www.w3.org/2000/svg">
<path fill-rule="evenodd" clip-rule="evenodd" d="M22.2314 17.3566L20.5707 20.4654C20.2181 21.1254 20.1458 21.8994 20.3699 22.6133L20.4252 22.7892C20.757 23.8461 21.7365 24.5652 22.8443 24.5652C23.9521 24.5652 24.9317 23.8461 25.2635 22.7892L25.3187 22.6133C25.5429 21.8994 25.4706 21.1254 25.118 20.4654L23.4572 17.3566C23.3364 17.1304 23.1008 16.9892 22.8443 16.9892C22.5878 16.9892 22.3523 17.1304 22.2314 17.3566Z" fill="black"/>
<path fill-rule="evenodd" clip-rule="evenodd" d="M12.458 23.835C12.3301 24.1764 12.0009 24.4194 11.6148 24.4194C11.1178 24.4194 10.7148 24.0165 10.7148 23.5194C10.7148 23.3937 10.7406 23.2741 10.7871 23.1655L15.5894 11.1846C15.8869 10.4422 16.9327 10.4277 17.2507 11.1616L20.0493 17.6212L18.788 20.0305H13.9838L12.458 23.835ZM18.3516 18.2305H14.7051L16.4572 13.8581L18.3516 18.2305Z" fill="black"/>
</svg>
