<svg width="36" height="36" viewBox="0 0 36 36" fill="none" xmlns="http://www.w3.org/2000/svg">
<path d="M25 18.9999C25 17.7112 23.9553 16.6665 22.6667 16.6665H13.3333C12.0447 16.6665 11 17.7112 11 18.9999M13.3333 11.9999H15.4779C16.0968 11.9999 16.6903 12.2457 17.1279 12.6833L17.3166 12.872C17.7542 13.3096 18.3477 13.5554 18.9665 13.5554H22.6667C23.9553 13.5554 25 14.6001 25 15.8888V21.3332C25 22.6219 23.9553 23.6665 22.6667 23.6665H13.3333C12.0447 23.6665 11 22.6219 11 21.3332V14.3332C11 13.0445 12.0447 11.9999 13.3333 11.9999Z" stroke="black" stroke-width="1.85" stroke-linecap="round" stroke-linejoin="round"/>
</svg>
