<svg width="40" height="40" viewBox="0 0 40 40" fill="none" xmlns="http://www.w3.org/2000/svg">
<path fill-rule="evenodd" clip-rule="evenodd" d="M15.7628 22.2508V18.8758C15.7628 18.8094 15.7564 18.7435 15.7434 18.6783C15.7304 18.6131 15.7112 18.5498 15.6858 18.4884C15.6603 18.427 15.6291 18.3686 15.5922 18.3133C15.5553 18.258 15.5133 18.2069 15.4663 18.1599C15.4193 18.1129 15.3681 18.0709 15.3129 18.034C15.2576 17.997 15.1992 17.9659 15.1378 17.9404C15.0764 17.915 15.0131 17.8958 14.9479 17.8828C14.8827 17.8698 14.8168 17.8633 14.7503 17.8633C14.6839 17.8633 14.618 17.8698 14.5528 17.8828C14.4876 17.8958 14.4243 17.915 14.3629 17.9404C14.3015 17.9659 14.2431 17.997 14.1878 18.034C14.1326 18.0709 14.0814 18.1129 14.0344 18.1599C13.9874 18.2069 13.9454 18.258 13.9085 18.3133C13.8715 18.3686 13.8404 18.427 13.8149 18.4884C13.7895 18.5498 13.7703 18.6131 13.7573 18.6783C13.7443 18.7435 13.7378 18.8094 13.7378 18.8758V22.2508C13.7378 25.6059 16.4577 28.3258 19.8128 28.3258C23.168 28.3258 25.8878 25.6059 25.8878 22.2508V15.5008C25.8878 13.0777 23.9235 11.1133 21.5003 11.1133C19.0772 11.1133 17.1128 13.0777 17.1128 15.5008V22.2508C17.1128 23.742 18.3217 24.9508 19.8128 24.9508C21.304 24.9508 22.5128 23.7419 22.5128 22.2508V15.5008C22.5128 15.4344 22.5064 15.3685 22.4934 15.3033C22.4804 15.2381 22.4612 15.1748 22.4358 15.1134C22.4103 15.052 22.3791 14.9936 22.3422 14.9383C22.3053 14.8831 22.2633 14.8319 22.2163 14.7849C22.1693 14.7379 22.1181 14.6959 22.0629 14.659C22.0076 14.6221 21.9492 14.5909 21.8878 14.5654C21.8264 14.54 21.7631 14.5208 21.6979 14.5078C21.6327 14.4948 21.5668 14.4883 21.5003 14.4883C21.4339 14.4883 21.368 14.4948 21.3028 14.5078C21.2376 14.5208 21.1743 14.54 21.1129 14.5654C21.0515 14.5909 20.9931 14.6221 20.9378 14.659C20.8825 14.6959 20.8314 14.7379 20.7844 14.7849C20.7374 14.8319 20.6954 14.8831 20.6585 14.9383C20.6215 14.9936 20.5904 15.052 20.5649 15.1134C20.5395 15.1748 20.5203 15.2381 20.5073 15.3033C20.4943 15.3685 20.4878 15.4344 20.4878 15.5008V22.2508C20.4878 22.6236 20.1856 22.9258 19.8128 22.9258C19.4401 22.9258 19.1378 22.6236 19.1378 22.2508V15.5008C19.1378 14.1961 20.1956 13.1383 21.5003 13.1383C22.8051 13.1383 23.8628 14.1961 23.8628 15.5008V22.2508C23.8628 24.4876 22.0496 26.3008 19.8128 26.3008C17.5761 26.3008 15.7628 24.4876 15.7628 22.2508Z" fill="black"/>
</svg>
